<?xml version="1.0" encoding="UTF-8" standalone="no"?>
<!-- Created with Inkscape (http://www.inkscape.org/) -->

<svg
   width="76.398743mm"
   height="77.946571mm"
   viewBox="0 0 76.398743 77.946571"
   version="1.1"
   id="svg5"
   xml:space="preserve"
   inkscape:version="1.2.2 (b0a8486541, 2022-12-01)"
   sodipodi:docname="cardsBackground.svg"
   xmlns:inkscape="http://www.inkscape.org/namespaces/inkscape"
   xmlns:sodipodi="http://sodipodi.sourceforge.net/DTD/sodipodi-0.dtd"
   xmlns="http://www.w3.org/2000/svg"
   xmlns:svg="http://www.w3.org/2000/svg"><sodipodi:namedview
     id="namedview7"
     pagecolor="#ffffff"
     bordercolor="#000000"
     borderopacity="0.25"
     inkscape:showpageshadow="2"
     inkscape:pageopacity="0.0"
     inkscape:pagecheckerboard="0"
     inkscape:deskcolor="#d1d1d1"
     inkscape:document-units="mm"
     showgrid="false"
     inkscape:zoom="0.7198092"
     inkscape:cx="526.52842"
     inkscape:cy="54.181025"
     inkscape:window-width="1920"
     inkscape:window-height="1011"
     inkscape:window-x="0"
     inkscape:window-y="0"
     inkscape:window-maximized="1"
     inkscape:current-layer="layer1"><inkscape:page
       x="0"
       y="0"
       width="76.398743"
       height="77.946571"
       id="page499"
       inkscape:export-filename="backgroundBlocker.png"
       inkscape:export-xdpi="96"
       inkscape:export-ydpi="96" /><inkscape:page
       x="86.398743"
       y="0"
       width="76.398743"
       height="77.946571"
       id="page501"
       inkscape:export-filename="backgroundRitual.png"
       inkscape:export-xdpi="96"
       inkscape:export-ydpi="96" /><inkscape:page
       x="172.79749"
       y="0"
       width="76.398743"
       height="77.946571"
       id="page503"
       inkscape:export-filename="backgroundSoulspell.png"
       inkscape:export-xdpi="96"
       inkscape:export-ydpi="96" /></sodipodi:namedview><defs
     id="defs2" /><g
     inkscape:label="Calque 1"
     inkscape:groupmode="layer"
     id="layer1"
     transform="translate(-4.8068175,-131.94873)"><path
       style="fill:#b3b3b3;stroke-width:0.15072;opacity:0.50048198"
       d="m 43.16181,206.98198 c -1.72464,-0.49634 -5.68845,-2.57831 -8.356109,-4.38901 -4.444882,-3.01699 -8.814754,-7.4215 -11.965576,-12.06042 -4.449231,-6.55055 -7.749347,-15.13773 -9.445314,-24.57749 -1.063076,-5.91709 -1.598824,-13.31056 -1.284575,-17.72748 0.09649,-1.35627 0.21423,-2.61726 0.261635,-2.80221 0.0848,-0.33085 0.128721,-0.33628 2.718293,-0.33628 4.044514,0 7.452335,-0.48505 11.359316,-1.61682 5.703749,-1.65225 11.06354,-4.24161 16.00444,-7.73189 l 1.45397,-1.02709 1.45398,1.02709 c 6.02523,4.25625 13.05177,7.32505 19.85169,8.67012 2.20009,0.43519 4.89501,0.67859 7.51329,0.67859 3.10302,0 2.7218,-0.39225 2.97441,3.06045 0.1923,2.62822 0.0217,7.64307 -0.38767,11.39663 -0.97631,8.95183 -3.0283,16.66969 -6.2602,23.54565 -2.56757,5.46261 -5.4278,9.64487 -9.31714,13.62362 -3.93304,4.02347 -7.59034,6.5802 -13.18423,9.21679 -1.33117,0.62742 -2.48745,1.16377 -2.56952,1.19188 -0.0821,0.0281 -0.45138,-0.0358 -0.82069,-0.14213 z m 2.85757,-7.66265 c 12.20999,-6.32983 20.06086,-19.10167 22.5735,-36.72271 0.53202,-3.73105 0.99701,-10.96124 0.70494,-10.96124 -0.63239,0 -4.06964,-0.54059 -5.90845,-0.92925 -3.44306,-0.72774 -6.90794,-1.8353 -10.67771,-3.41317 -1.59553,-0.66781 -5.79746,-2.85422 -7.25969,-3.77745 -0.7511,-0.47424 -1.437,-0.86225 -1.52422,-0.86225 -0.0872,0 -0.74848,0.36357 -1.46947,0.80794 -6.703902,4.13183 -14.596141,6.97558 -22.051068,7.94549 -1.066411,0.13875 -1.964365,0.27821 -1.995453,0.30993 -0.118359,0.12076 0.309081,6.64615 0.583044,8.90089 2.280012,18.76464 10.329214,32.2275 23.271717,38.92359 0.86172,0.44583 1.61045,0.81067 1.66383,0.81075 0.0534,8e-5 0.99346,-0.46456 2.08903,-1.03252 z m -3.97669,-6.3981 c -4.44072,-2.37355 -7.678011,-5.39264 -10.560196,-9.84841 -1.059393,-1.63779 -2.866874,-5.35605 -3.613427,-7.43337 -1.988766,-5.53382 -3.153387,-12.56219 -3.031547,-18.29509 l 0.0453,-2.13135 1.717832,-0.10302 c 5.157472,-0.3093 11.469508,-2.64519 16.442558,-6.08489 l 0.8513,-0.58882 1.23773,0.82056 c 5.15948,3.42052 11.00732,5.54876 16.0829,5.85315 l 1.71784,0.10302 0.0491,1.97911 c 0.12113,4.87979 -0.84393,11.58214 -2.36745,16.44186 -2.50336,7.9852 -6.65027,13.97678 -12.30488,17.77845 -1.38834,0.9334 -4.10364,2.39598 -4.43647,2.38968 -0.10408,-0.002 -0.92786,-0.39836 -1.83062,-0.88088 z"
       id="path302" /><g
       id="g595"
       transform="translate(-0.98354831,1.9186918)"
       style="opacity:0.50048198"><path
         style="fill:#a0a0a0;stroke-width:0.132183"
         d="m 97.648292,202.56863 c -0.236943,-0.14446 -0.549004,-0.45652 -0.693469,-0.69347 -0.244105,-0.40036 -0.2627,-0.6713 -0.263159,-3.83452 l -4.94e-4,-3.40373 h 33.83896 33.83897 l -5.3e-4,3.40373 c -4e-4,3.16322 -0.0191,3.43416 -0.26316,3.83452 -0.14447,0.23695 -0.45653,0.54901 -0.69347,0.69347 -0.42679,0.26022 -0.73356,0.26267 -32.88184,0.26267 -32.148281,0 -32.455057,-0.002 -32.881843,-0.26267 z m 3.008378,-14.73917 v -2.97412 h 29.87346 29.87346 v 2.97412 2.97413 h -29.87346 -29.87346 z m 4.09818,-9.28588 c 5.6e-4,-2.6217 0.0887,-2.94132 0.95663,-3.47053 0.42577,-0.25959 0.71614,-0.26267 24.81865,-0.26267 24.10251,0 24.39289,0.003 24.81865,0.26267 0.86798,0.52921 0.95608,0.84883 0.95663,3.47053 l 4.9e-4,2.34625 h -25.77577 -25.77577 z m 11.1238,-8.39365 c -1.88585,-3.31254 -2.58122,-7.67309 -1.80754,-11.33473 0.33312,-1.57656 4.30441,-14.96097 4.56915,-15.39937 0.51481,-0.8525 1.87574,-1.19223 2.67484,-0.66772 0.20255,0.13295 1.05494,1.07139 1.8942,2.08542 0.83926,1.01403 1.54483,1.82366 1.56793,1.79919 0.0231,-0.0245 0.91688,-2.34406 1.98616,-5.15464 1.06929,-2.81057 2.0498,-5.28386 2.17893,-5.49619 0.33895,-0.55736 1.08149,-0.87171 1.87826,-0.79515 1.29989,0.1249 1.49323,0.49356 4.47166,8.5265 0.59976,1.61759 1.12688,2.93746 1.17136,2.93304 0.0445,-0.004 0.73472,-0.81716 1.53387,-1.80608 1.57997,-1.95515 2.16981,-2.3903 3.02173,-2.22926 0.61212,0.11571 1.23342,0.53883 1.47382,1.00372 0.28368,0.54856 4.11652,13.49699 4.4408,15.00226 0.78033,3.62219 0.26243,7.56533 -1.4323,10.90514 l -0.63721,1.25574 -3.34555,0.0353 c -1.84005,0.0194 -3.32538,-0.0103 -3.30072,-0.0661 0.0247,-0.0558 0.23805,-0.48807 0.47421,-0.96063 0.23617,-0.47255 0.55561,-1.3615 0.70988,-1.97545 0.56395,-2.24428 0.1219,-5.0158 -1.10204,-6.90946 -0.7914,-1.22446 -6.49578,-7.95362 -6.89753,-8.13667 -0.45646,-0.20798 -1.28839,-0.20798 -1.74485,0 -0.42548,0.19386 -6.17849,7.00576 -6.9199,8.19356 -1.61219,2.58288 -1.75748,6.05132 -0.3698,8.82802 0.23617,0.47256 0.44922,0.90381 0.47345,0.95833 0.0242,0.0545 -1.44359,0.0991 -3.26184,0.0991 h -3.3059 z m 13.06528,0.57718 c -2.42271,-0.78968 -4.0462,-3.43379 -3.59571,-5.85617 0.0836,-0.44979 0.30119,-1.11897 0.48342,-1.48706 0.35773,-0.72258 4.45979,-5.69224 4.69849,-5.69224 0.2387,0 4.34076,4.96966 4.69849,5.69224 0.18224,0.36809 0.39978,1.03727 0.48343,1.48706 0.39313,2.11396 -0.81912,4.4909 -2.81839,5.52619 -0.63321,0.32791 -0.87073,0.37211 -2.16525,0.403 -0.79971,0.0191 -1.60273,-0.0138 -1.78448,-0.073 z"
         id="path601" /><path
         style="fill:#616161;stroke-width:0.132183"
         d="m 97.717048,202.55967 c -0.302042,-0.15947 -0.5976,-0.46356 -0.760054,-0.782 -0.244933,-0.4801 -0.265824,-0.77599 -0.265824,-3.76481 v -3.24377 h 33.83896 33.83897 v 3.24377 c 0,2.99013 -0.0208,3.28455 -0.26615,3.76544 -0.1713,0.33579 -0.45205,0.61654 -0.78784,0.78784 -0.51873,0.26464 -0.70478,0.26611 -32.81276,0.2603 -31.888687,-0.006 -32.297229,-0.009 -32.785302,-0.26677 z m 2.939622,-14.73021 v -2.97412 h 29.87346 29.87346 v 2.97412 2.97413 h -29.87346 -29.87346 z m 4.09769,-9.19201 c 0,-2.62928 0.13764,-3.09443 1.05398,-3.56191 0.51723,-0.26387 0.72863,-0.26615 24.72179,-0.26615 23.99317,0 24.20457,0.002 24.72179,0.26615 0.91634,0.46748 1.05398,0.93263 1.05398,3.56191 v 2.25238 h -25.77577 -25.77577 z m 10.92284,-8.9628 c -0.6828,-1.32201 -1.2804,-3.02144 -1.61083,-4.58074 -0.27583,-1.30168 -0.3112,-4.33683 -0.067,-5.74998 0.22524,-1.30343 4.40246,-15.49201 4.6903,-15.93131 0.4937,-0.75348 1.67859,-1.08382 2.51713,-0.70176 0.18617,0.0848 1.06431,1.03847 1.95142,2.11921 1.27313,1.551 1.6318,1.91535 1.70246,1.72939 3.25071,-8.55509 4.01201,-10.45481 4.32011,-10.78018 0.66736,-0.70477 1.85435,-0.79529 2.61216,-0.1992 0.49687,0.39084 0.9443,1.41673 2.89861,6.64609 0.92376,2.47183 1.69476,4.51008 1.71333,4.52944 0.0186,0.0194 0.70081,-0.782 1.51612,-1.78079 0.81531,-0.99879 1.64214,-1.92135 1.83741,-2.05012 0.48942,-0.32278 1.52561,-0.31007 2.06835,0.0254 0.23249,0.14368 0.52266,0.45597 0.64483,0.69396 0.22094,0.43042 3.85189,12.61839 4.32279,14.51026 0.95507,3.83704 0.43132,7.98191 -1.47052,11.63748 l -0.54737,1.05213 h -3.30088 c -1.81548,0 -3.28061,-0.0446 -3.25586,-0.0991 0.0248,-0.0545 0.2364,-0.46622 0.47032,-0.91489 1.31829,-2.52856 1.2976,-5.82587 -0.0527,-8.39547 -0.45024,-0.85681 -5.05933,-6.56927 -6.56855,-8.141 -0.98914,-1.0301 -2.08828,-1.0301 -3.07741,0 -1.47912,1.54038 -6.11829,7.28415 -6.55583,8.11679 -0.72717,1.3838 -1.02613,2.63111 -1.02613,4.28117 0,1.65023 0.2059,2.55671 0.92262,4.06203 l 0.51922,1.09051 h -3.28511 -3.28512 z m 13.145,0.9593 c -2.34096,-0.84852 -3.82441,-3.33265 -3.43482,-5.75182 0.0717,-0.44505 0.27909,-1.10276 0.46092,-1.46158 0.32059,-0.63265 4.4854,-5.72891 4.68183,-5.72891 0.22946,0 4.41666,5.17638 4.71587,5.82995 1.15938,2.53242 0.0643,5.62091 -2.43363,6.86336 -0.65833,0.32745 -0.94216,0.38464 -2.08396,0.41995 -0.9662,0.0299 -1.47906,-0.0161 -1.90621,-0.17095 z"
         id="path599" /><path
         style="fill:#b3b3b3;stroke-width:0.132183"
         d="m 98.092886,202.69557 c -0.539675,-0.16227 -1.116023,-0.75684 -1.269632,-1.30979 -0.07184,-0.25858 -0.130941,-1.85312 -0.131347,-3.54342 l -7.37e-4,-3.07327 h 33.84721 33.84721 l -0.0413,3.36132 c -0.0455,3.6991 -0.0423,3.68447 -0.95139,4.36325 l -0.36502,0.27253 -32.27612,0.0222 c -18.01338,0.0124 -32.445265,-0.0286 -32.658884,-0.0928 z m 2.563784,-14.9322 v -2.90803 h 29.87346 29.87346 v 2.90803 2.90804 h -29.87346 -29.87346 z m 4.12003,-9.24352 c 0.0478,-2.58941 0.0858,-2.72374 0.95385,-3.37183 l 0.36503,-0.27253 h 24.43455 24.43455 l 0.36503,0.27253 c 0.86805,0.64809 0.90605,0.78242 0.95385,3.37183 l 0.0438,2.36998 H 130.53018 104.733 Z m 11.33895,-8.10556 c -0.90075,-1.44943 -1.70909,-3.68613 -2.05961,-5.69899 -0.28316,-1.62607 -0.18441,-4.85461 0.19462,-6.36275 0.62824,-2.4997 4.28796,-14.70182 4.49972,-15.00282 0.52907,-0.752 1.71355,-1.00595 2.4884,-0.5335 0.23327,0.14223 1.11768,1.09659 1.96537,2.1208 0.84768,1.02421 1.5661,1.83734 1.59648,1.80696 0.0304,-0.0304 0.97179,-2.45716 2.09202,-5.39284 2.17822,-5.70829 2.21215,-5.77199 3.23843,-6.07947 0.43883,-0.13148 0.61825,-0.12 1.12004,0.0716 0.96449,0.36834 0.82937,0.0944 3.36245,6.81677 0.91772,2.43548 1.72694,4.45469 1.79825,4.48713 0.0713,0.0324 0.76125,-0.71109 1.53318,-1.65229 0.77193,-0.9412 1.59928,-1.84511 1.83856,-2.00869 0.76053,-0.51991 1.9675,-0.28381 2.53399,0.49569 0.21829,0.30038 3.85976,12.35529 4.49202,14.87063 0.18326,0.72907 0.28741,1.69376 0.33537,3.10632 0.0776,2.28552 -0.0919,3.63827 -0.69794,5.56964 -0.32501,1.03578 -1.33239,3.24519 -1.65918,3.63894 -0.11477,0.13829 -0.84257,0.17644 -3.36624,0.17644 h -3.21981 l 0.44896,-0.82615 c 1.57233,-2.89332 1.4256,-6.59075 -0.36755,-9.26183 -1.01127,-1.50639 -6.43552,-7.86089 -6.89707,-8.07991 -0.55136,-0.26164 -1.1606,-0.26164 -1.71195,0 -0.46156,0.21902 -5.88581,6.57352 -6.89708,8.07991 -1.79702,2.67684 -1.94327,6.36226 -0.36755,9.26183 l 0.44896,0.82615 h -3.23794 -3.23793 z m 12.89437,0.25214 c -1.7192,-0.56792 -2.94173,-1.83903 -3.44174,-3.57853 -0.31741,-1.10424 -0.21751,-2.55049 0.24295,-3.51725 0.32923,-0.69126 4.48698,-5.81292 4.7189,-5.81292 0.23192,0 4.38967,5.12166 4.71891,5.81292 0.46045,0.96676 0.56035,2.41301 0.24294,3.51725 -0.43028,1.49693 -1.45158,2.70014 -2.83105,3.3353 -0.89007,0.40982 -2.7679,0.53493 -3.65091,0.24323 z"
         id="path597" /></g><path
       style="fill:#b3b3b3;stroke-width:0.141226;opacity:0.50048198"
       d="m 206.1248,201.70403 c -4.07414,-0.49169 -7.35089,-1.64892 -10.43621,-3.6857 -1.50928,-0.99635 -4.34562,-3.80915 -5.31317,-5.26907 -3.254,-4.90988 -4.04819,-10.62381 -2.23776,-16.09979 0.94556,-2.86001 2.4705,-5.23973 4.7821,-7.4626 1.65884,-1.59518 3.07463,-2.57625 5.22576,-3.62117 3.22127,-1.56475 5.10476,-1.98984 10.9742,-2.47679 2.21779,-0.18399 3.79295,-0.56402 5.2794,-1.27373 3.48555,-1.66419 3.23861,-4.28532 -0.8422,-8.93933 -1.35846,-1.54927 -1.49395,-1.94906 -0.87152,-2.57149 0.42968,-0.42968 1.16043,-0.45246 2.92702,-0.0912 0.67423,0.13786 1.19131,0.19472 1.14906,0.12636 -0.0423,-0.0684 -0.57005,-0.49 -1.17289,-0.93697 -2.59186,-1.92175 -6.28271,-3.32148 -9.56174,-3.62624 -3.30816,-0.30746 -9.20587,1.43199 -12.76182,3.76393 -0.68423,0.4487 -1.22037,0.69997 -1.49356,0.69997 -0.54791,0 -1.0874,-0.55587 -1.0874,-1.12041 0,-0.57852 0.97978,-1.80713 2.37544,-2.97872 3.47816,-2.91976 7.97234,-4.76274 13.81997,-5.66733 2.37146,-0.36685 8.34466,-0.51784 10.71164,-0.27078 9.66625,1.00897 17.74618,6.55439 22.46649,15.4192 1.52135,2.85712 2.67483,6.33771 3.0839,9.30557 0.28171,2.04383 0.2459,7.71876 -0.0618,9.7871 -0.63742,4.28529 -2.12467,8.14686 -4.57977,11.89112 -5.83281,8.89561 -13.44575,13.53955 -24.32528,14.83856 -1.72476,0.20594 -7.06694,0.37818 -8.0499,0.25955 z"
       id="path593" /><path
       style="display:inline;fill:#e6e6e6;stroke-width:0.141226;opacity:0.50048198"
       d="m 205.75083,201.64304 c -3.21225,-0.33838 -6.89589,-1.59501 -9.42739,-3.21604 -7.45113,-4.77126 -10.71374,-13.09048 -8.34681,-21.28324 1.67392,-5.79403 6.72952,-10.72902 13.06403,-12.75234 1.94755,-0.62208 3.99527,-0.97945 6.60118,-1.15205 4.24487,-0.28116 6.7151,-0.98699 8.2235,-2.34974 1.84785,-1.66943 0.99557,-4.41986 -2.59031,-8.35921 -1.0744,-1.18031 -1.18804,-1.62764 -0.57039,-2.24529 0.35036,-0.35036 0.41177,-0.36185 1.44757,-0.2708 0.59492,0.0523 1.46299,0.18404 1.92904,0.29278 l 0.84736,0.1977 -0.56491,-0.50021 c -2.87694,-2.54749 -8.17886,-4.45033 -11.80506,-4.23678 -3.60456,0.21228 -8.39208,1.81945 -11.42391,3.83501 -1.06401,0.70735 -1.48053,0.77801 -2.03148,0.34464 -0.60073,-0.47255 -0.51717,-1.15656 0.25653,-2.09976 2.37617,-2.89672 6.765,-5.34108 11.92396,-6.64106 3.37598,-0.8507 5.27522,-1.04868 10.11421,-1.05432 4.79642,-0.006 5.67205,0.0857 8.80896,0.91853 9.1187,2.42089 16.54151,9.55157 19.70342,18.92798 1.16023,3.44056 1.61291,6.89142 1.44319,11.00158 -0.25471,6.16816 -1.73631,10.90429 -4.89746,15.65539 -6.33332,9.51876 -14.53816,14.12651 -26.68221,14.98446 -2.28672,0.16156 -4.50604,0.16258 -6.02302,0.003 z m 7.17317,-2.40158 c 7.94333,-0.78984 13.91331,-3.31627 18.67433,-7.90277 4.77412,-4.59911 7.91333,-10.13941 9.01534,-15.91087 0.28668,-1.50144 0.31962,-2.10179 0.3204,-5.83966 7.1e-4,-3.40397 -0.0441,-4.38752 -0.24492,-5.37603 -0.88444,-4.35349 -2.92461,-8.68459 -5.72305,-12.14954 -1.41149,-1.74765 -3.97261,-4.10731 -5.72368,-5.27344 -4.92563,-3.28024 -10.11644,-4.62836 -16.97428,-4.40845 -2.95778,0.0949 -4.27868,0.23192 -6.70824,0.69614 l -1.6241,0.31031 1.83594,0.0905 c 6.44989,0.31777 12.86935,4.04315 16.06013,9.32014 0.64206,1.06186 0.66461,1.42905 0.12113,1.97253 -0.55073,0.55073 -0.96495,0.52147 -1.79305,-0.12665 -0.97329,-0.76176 -1.56744,-1.09977 -2.64826,-1.50658 l -0.94273,-0.35485 0.69313,1.02392 c 1.4535,2.14715 1.92074,3.49254 1.82781,5.26308 -0.0797,1.5177 -0.52344,2.44688 -1.68012,3.51775 -1.92042,1.77798 -4.96176,2.69518 -9.87272,2.97742 -9.21668,0.52968 -16.05947,5.84254 -17.73325,13.76841 -0.34401,1.629 -0.34401,4.58496 0,6.21395 0.69956,3.31265 2.1403,5.91348 4.65517,8.40354 1.54022,1.52502 2.85582,2.4751 4.74574,3.4272 1.43498,0.72291 3.76385,1.49158 5.22537,1.72471 0.58255,0.0929 1.15452,0.18763 1.27103,0.21045 0.56161,0.11004 5.93284,0.0571 7.22288,-0.0712 z m -12.83951,-5.35635 c -3.6161,-0.97626 -6.46463,-3.96139 -7.24875,-7.59635 -0.22664,-1.05064 -0.22417,-2.98411 0.005,-4.06085 0.78852,-3.70168 3.87076,-6.80905 7.57045,-7.63215 1.58232,-0.35203 3.70622,-0.23364 5.27579,0.29407 4.15857,1.39819 7.03785,5.64058 6.75013,9.9458 -0.26788,4.00851 -2.97838,7.55335 -6.75013,8.82794 -1.60788,0.54336 -4.05261,0.64003 -5.60268,0.22154 z"
       id="path591" /><path
       style="fill:#e6e6e6;stroke-width:0.141226;opacity:0.50048198"
       d="m 204.64193,201.44929 c -8.34341,-1.38366 -14.8737,-6.99668 -16.8099,-14.44869 -1.77578,-6.8346 0.60524,-14.13737 6.08657,-18.66802 3.55653,-2.93968 7.79865,-4.58305 12.81014,-4.96257 4.28402,-0.32443 5.88136,-0.62219 7.5656,-1.4103 1.91858,-0.89777 2.63949,-1.87135 2.53944,-3.42954 -0.10018,-1.56039 -1.17388,-3.43254 -3.27475,-5.71001 -1.18888,-1.28883 -1.37215,-1.69165 -1.01654,-2.23439 0.45364,-0.69233 0.92524,-0.70646 4.10366,-0.1229 l 0.42368,0.0778 -0.42368,-0.37224 c -2.2669,-1.99167 -5.75859,-3.63116 -9.03847,-4.24392 -1.59924,-0.29878 -4.37536,-0.20592 -6.17587,0.20658 -2.87183,0.65794 -6.02282,1.95092 -8.27473,3.39546 -0.96325,0.6179 -1.21841,0.72213 -1.57564,0.64367 -0.50395,-0.11068 -0.8503,-0.55002 -0.8503,-1.07858 0,-0.75242 2.05082,-2.86348 4.12772,-4.24899 3.98111,-2.6558 9.07902,-4.18702 15.44905,-4.6403 9.08986,-0.64682 16.19045,1.32905 22.17464,6.17051 5.06958,4.10151 8.93632,10.45108 10.30762,16.92614 0.31033,1.46535 0.37046,2.17903 0.43667,5.1832 0.0845,3.83584 -0.0488,5.69703 -0.59214,8.26448 -1.18428,5.59635 -4.39759,11.19942 -9.09748,15.86337 -4.77144,4.73495 -10.47599,7.44168 -18.1621,8.61765 -2.52566,0.38643 -8.94067,0.51888 -10.73319,0.22161 z m 9.31512,-2.27357 c 10.00046,-1.1846 16.82129,-5.27367 22.38068,-13.41716 3.10394,-4.5467 4.52884,-8.97988 4.76152,-14.81418 0.20738,-5.19979 -0.58141,-9.21341 -2.63957,-13.43106 -4.12371,-8.45042 -11.38786,-13.76956 -20.45262,-14.97633 -1.96026,-0.26096 -6.75026,-0.26037 -9.19896,0.001 -1.88594,0.20141 -4.8522,0.71671 -5.17695,0.89934 -0.0924,0.0519 0.63746,0.0971 1.62184,0.10033 6.33353,0.0208 13.29862,3.90497 16.48183,9.19122 0.80981,1.34482 0.59393,2.31283 -0.51579,2.31283 -0.38923,0 -0.66644,-0.11149 -1.002,-0.40301 -0.25514,-0.22166 -0.74204,-0.57707 -1.08199,-0.7898 -0.64937,-0.40637 -2.41179,-1.12036 -2.51377,-1.01839 -0.0327,0.0327 0.23218,0.47682 0.58871,0.98684 3.42544,4.90014 2.07872,8.97229 -3.55055,10.73598 -1.59506,0.49975 -3.26613,0.76565 -5.91053,0.94047 -1.24279,0.0822 -2.89513,0.2779 -3.67188,0.43497 -7.66493,1.54996 -13.19433,6.8598 -14.38843,13.81711 -1.48256,8.63802 4.29926,16.84008 13.48948,19.13611 0.80512,0.20115 1.94049,0.42532 2.52305,0.49816 1.41804,0.1773 5.98808,0.0641 8.25593,-0.20458 z m -12.70455,-5.11511 c -1.00775,-0.13937 -2.19208,-0.52671 -3.17759,-1.03924 -7.15115,-3.71912 -7.15115,-13.77224 0,-17.49136 2.59863,-1.35148 5.58461,-1.46182 8.3372,-0.30809 5.2065,2.18228 7.45207,8.44063 4.86903,13.56987 -1.82284,3.61968 -6.01762,5.82352 -10.02864,5.26882 z m 3.0025,-2.37133 c 1.89546,-0.4469 3.60844,-1.67432 4.721,-3.38278 1.5515,-2.38251 1.5515,-5.67911 0,-8.06163 -2.71035,-4.16205 -8.24301,-4.80277 -11.742,-1.35982 -3.04399,2.99525 -3.05402,7.7411 -0.0228,10.76916 1.87477,1.87279 4.50678,2.63322 7.04376,2.03507 z"
       id="path589" /></g></svg>
